<mxfile host="app.diagrams.net" modified="2024-04-23T20:59:44.755Z" agent="Mozilla/5.0 (Macintosh; Intel Mac OS X 10_15_7) AppleWebKit/537.36 (KHTML, like Gecko) Chrome/123.0.0.0 Safari/537.36" etag="JdX8Zj4Z1Db2fpXMSqhi" version="24.2.7" type="github">
  <diagram id="C5RBs43oDa-KdzZeNtuy" name="Page-1">
    <mxGraphModel dx="887" dy="520" grid="1" gridSize="10" guides="1" tooltips="1" connect="1" arrows="1" fold="1" page="1" pageScale="1" pageWidth="827" pageHeight="1169" math="0" shadow="0">
      <root>
        <mxCell id="WIyWlLk6GJQsqaUBKTNV-0" />
        <mxCell id="WIyWlLk6GJQsqaUBKTNV-1" parent="WIyWlLk6GJQsqaUBKTNV-0" />
        <mxCell id="Gndv73-JafcdS37rnn_F-0" value="AlertGenerator" style="swimlane;fontStyle=1;align=center;verticalAlign=top;childLayout=stackLayout;horizontal=1;startSize=27.9;horizontalStack=0;resizeParent=1;resizeParentMax=0;resizeLast=0;collapsible=0;marginBottom=0;" vertex="1" parent="WIyWlLk6GJQsqaUBKTNV-1">
          <mxGeometry x="20" y="20" width="421" height="147.9" as="geometry" />
        </mxCell>
        <mxCell id="Gndv73-JafcdS37rnn_F-1" value="- static final Random randomGenerator" style="text;strokeColor=none;fillColor=none;align=left;verticalAlign=top;spacingLeft=4;spacingRight=4;overflow=hidden;rotatable=0;points=[[0,0.5],[1,0.5]];portConstraint=eastwest;" vertex="1" parent="Gndv73-JafcdS37rnn_F-0">
          <mxGeometry y="27.9" width="421" height="28" as="geometry" />
        </mxCell>
        <mxCell id="Gndv73-JafcdS37rnn_F-2" value="- boolean[] AlertStates" style="text;strokeColor=none;fillColor=none;align=left;verticalAlign=top;spacingLeft=4;spacingRight=4;overflow=hidden;rotatable=0;points=[[0,0.5],[1,0.5]];portConstraint=eastwest;" vertex="1" parent="Gndv73-JafcdS37rnn_F-0">
          <mxGeometry y="55.9" width="421" height="28" as="geometry" />
        </mxCell>
        <mxCell id="Gndv73-JafcdS37rnn_F-3" style="line;strokeWidth=1;fillColor=none;align=left;verticalAlign=middle;spacingTop=-1;spacingLeft=3;spacingRight=3;rotatable=0;labelPosition=right;points=[];portConstraint=eastwest;strokeColor=inherit;" vertex="1" parent="Gndv73-JafcdS37rnn_F-0">
          <mxGeometry y="83.9" width="421" height="8" as="geometry" />
        </mxCell>
        <mxCell id="Gndv73-JafcdS37rnn_F-4" value="+ AlertGenerator(int patientCount)" style="text;strokeColor=none;fillColor=none;align=left;verticalAlign=top;spacingLeft=4;spacingRight=4;overflow=hidden;rotatable=0;points=[[0,0.5],[1,0.5]];portConstraint=eastwest;" vertex="1" parent="Gndv73-JafcdS37rnn_F-0">
          <mxGeometry y="91.9" width="421" height="28" as="geometry" />
        </mxCell>
        <mxCell id="Gndv73-JafcdS37rnn_F-5" value="+ generate(int patientId, OutputStrategy outputStrategy)" style="text;strokeColor=none;fillColor=none;align=left;verticalAlign=top;spacingLeft=4;spacingRight=4;overflow=hidden;rotatable=0;points=[[0,0.5],[1,0.5]];portConstraint=eastwest;" vertex="1" parent="Gndv73-JafcdS37rnn_F-0">
          <mxGeometry y="119.9" width="421" height="28" as="geometry" />
        </mxCell>
        <mxCell id="Gndv73-JafcdS37rnn_F-6" value="OutputStrategy" style="swimlane;fontStyle=1;align=center;verticalAlign=top;childLayout=stackLayout;horizontal=1;startSize=28.8;horizontalStack=0;resizeParent=1;resizeParentMax=0;resizeLast=0;collapsible=0;marginBottom=0;" vertex="1" parent="WIyWlLk6GJQsqaUBKTNV-1">
          <mxGeometry x="55" y="236" width="351" height="71.8" as="geometry" />
        </mxCell>
        <mxCell id="Gndv73-JafcdS37rnn_F-7" value="&#xa;    void output(int patientId, long timestamp, String label, String data);&#xa;" style="text;strokeColor=none;fillColor=none;align=left;verticalAlign=top;spacingLeft=4;spacingRight=4;overflow=hidden;rotatable=0;points=[[0,0.5],[1,0.5]];portConstraint=eastwest;" vertex="1" parent="Gndv73-JafcdS37rnn_F-6">
          <mxGeometry y="28.8" width="351" height="29" as="geometry" />
        </mxCell>
        <mxCell id="Gndv73-JafcdS37rnn_F-8" style="line;strokeWidth=1;fillColor=none;align=left;verticalAlign=middle;spacingTop=-1;spacingLeft=3;spacingRight=3;rotatable=0;labelPosition=right;points=[];portConstraint=eastwest;strokeColor=inherit;" vertex="1" parent="Gndv73-JafcdS37rnn_F-6">
          <mxGeometry y="57.8" width="351" height="14" as="geometry" />
        </mxCell>
        <mxCell id="Gndv73-JafcdS37rnn_F-9" value="Uses" style="curved=1;startArrow=none;endArrow=open;endSize=12;exitX=0.5003618616389549;exitY=0.9966216216216216;entryX=0.5004340277777778;entryY=0;rounded=0;" edge="1" parent="WIyWlLk6GJQsqaUBKTNV-1" source="Gndv73-JafcdS37rnn_F-0" target="Gndv73-JafcdS37rnn_F-6">
          <mxGeometry relative="1" as="geometry">
            <Array as="points" />
          </mxGeometry>
        </mxCell>
      </root>
    </mxGraphModel>
  </diagram>
</mxfile>
